<?xml version="1.0" standalone="no"?>
<!DOCTYPE svg PUBLIC "-//W3C//DTD SVG 20010904//EN"
 "http://www.w3.org/TR/2001/REC-SVG-20010904/DTD/svg10.dtd">
<svg version="1.0" xmlns="http://www.w3.org/2000/svg"
 width="2313.000000pt" height="1861.000000pt" viewBox="0 0 2313.000000 1861.000000"
 preserveAspectRatio="xMidYMid meet">

<g transform="translate(0.000000,1861.000000) scale(0.100000,-0.100000)"
fill="#000000" stroke="none">
<path d="M10893 15670 c-102 -11 -246 -43 -456 -101 -328 -90 -555 -134 -822
-159 -268 -25 -451 -58 -758 -136 -378 -96 -777 -244 -1117 -414 -241 -121
-526 -288 -665 -390 -183 -134 -325 -243 -331 -251 -8 -14 52 17 212 107 137
78 458 229 629 296 141 54 425 134 585 163 74 14 232 33 350 43 196 18 232 18
403 6 417 -30 688 -104 1056 -288 177 -89 310 -170 516 -316 495 -348 856
-516 1443 -671 151 -40 163 -42 317 -43 88 -1 259 5 380 13 237 14 443 9 580
-15 94 -16 115 -17 115 -5 0 19 -164 68 -374 111 -104 21 -428 54 -691 70
-210 12 -328 36 -520 104 -145 52 -481 214 -510 245 -22 25 -20 25 75 6 110
-23 417 -30 575 -14 184 19 493 16 630 -5 146 -23 381 -84 574 -148 176 -58
449 -190 540 -261 31 -24 69 -52 85 -63 l29 -18 -12 22 c-7 13 -39 54 -73 93
-300 349 -647 542 -1118 623 -203 35 -322 40 -615 27 -304 -14 -408 -11 -640
20 -276 36 -510 105 -705 206 -69 35 -132 71 -140 80 -14 14 -8 15 59 10 91
-7 369 8 521 28 63 9 199 31 302 51 319 59 448 75 678 81 313 8 589 -21 866
-93 145 -37 254 -74 327 -111 80 -40 91 -24 22 30 -153 122 -404 257 -588 316
-248 80 -575 114 -901 93 -207 -14 -306 -28 -601 -83 -455 -86 -658 -88 -1001
-14 -221 48 -468 93 -574 104 -115 12 -372 31 -435 31 -32 1 -36 3 -23 11 22
12 480 81 728 109 275 31 430 62 690 139 309 91 366 106 485 130 234 47 816
54 1005 12 52 -12 130 -33 173 -47 42 -14 82 -24 89 -22 14 5 -75 60 -177 110
-125 62 -298 126 -382 142 -164 31 -664 53 -810 36z"/>
<path d="M8989 14157 c-37 -29 -136 -101 -220 -162 -151 -109 -380 -275 -634
-460 -71 -52 -177 -129 -235 -170 -58 -42 -190 -138 -295 -215 -104 -77 -287
-210 -405 -296 -118 -87 -264 -194 -325 -239 -159 -118 -305 -225 -640 -470
-228 -167 -419 -307 -815 -602 -74 -55 -164 -119 -200 -143 -36 -24 -110 -78
-166 -120 -56 -41 -154 -113 -219 -160 -64 -47 -161 -117 -214 -156 -53 -38
-139 -101 -191 -139 -52 -38 -144 -105 -205 -150 -60 -45 -141 -103 -180 -130
-38 -27 -104 -74 -145 -105 -41 -31 -136 -101 -210 -154 -300 -216 -399 -292
-400 -305 0 -11 200 -382 215 -399 4 -5 247 164 391 272 66 50 154 115 195
143 148 104 241 172 282 206 23 18 130 97 237 174 269 193 582 420 721 522 64
47 178 131 254 186 225 164 335 245 430 315 96 72 238 174 424 308 64 46 148
108 186 137 39 29 142 105 230 169 246 179 415 302 549 401 67 50 186 137 266
195 79 58 196 144 259 191 64 47 235 172 381 279 265 193 396 289 628 460 67
49 126 90 130 90 5 0 35 -21 68 -46 32 -26 86 -65 119 -87 33 -22 114 -80 180
-129 66 -49 167 -123 225 -165 157 -115 227 -167 420 -309 96 -71 229 -169
295 -216 66 -48 215 -157 330 -243 116 -85 269 -198 340 -250 72 -52 189 -138
260 -191 72 -53 180 -132 240 -177 61 -44 151 -111 200 -147 50 -37 144 -106
210 -154 66 -47 154 -113 195 -145 41 -31 125 -93 185 -136 61 -43 198 -144
307 -224 108 -80 249 -184 313 -231 65 -47 199 -146 300 -220 100 -74 298
-220 440 -325 142 -104 294 -217 339 -251 45 -33 162 -118 261 -189 99 -71
202 -146 228 -167 27 -21 53 -38 57 -38 5 0 20 19 33 43 14 23 66 113 116 200
50 87 89 162 86 167 -3 5 -72 57 -153 115 -231 166 -267 192 -437 319 -88 65
-225 166 -305 224 -80 58 -203 149 -275 202 -71 54 -193 144 -270 199 -284
207 -404 294 -575 421 -96 72 -247 183 -335 247 -88 64 -230 169 -316 232
-205 153 -430 317 -643 471 -167 120 -328 238 -575 421 -132 97 -328 239 -437
316 -41 29 -134 96 -206 151 -123 92 -409 299 -642 466 -54 39 -142 103 -195
142 -53 38 -118 85 -146 104 -27 19 -84 59 -125 90 -132 99 -115 96 -191 37z"/>
<path d="M5555 13948 c-3 -7 -4 -75 -3 -149 l3 -134 78 -3 c51 -2 77 -7 78
-15 0 -7 0 -405 -1 -884 -1 -635 2 -873 10 -873 11 0 123 81 804 579 169 124
369 270 444 323 74 54 138 100 140 103 3 3 4 176 3 385 l-3 380 71 0 71 0 0
145 0 145 -753 0 c-415 0 -795 3 -845 6 -75 6 -93 4 -97 -8z m1094 -841 c-1
-198 -5 -335 -9 -312 -12 62 -12 678 0 670 6 -4 10 -130 9 -358z"/>
<path d="M8984 13399 c-38 -28 -122 -89 -188 -137 -65 -48 -174 -127 -241
-177 -68 -49 -167 -121 -221 -160 -54 -38 -144 -104 -200 -145 -56 -41 -173
-127 -259 -190 -87 -63 -223 -164 -304 -224 -80 -59 -173 -126 -206 -149 -33
-22 -94 -66 -135 -97 -41 -31 -129 -97 -195 -146 -66 -50 -158 -117 -205 -149
-47 -32 -152 -109 -235 -170 -188 -140 -797 -586 -1104 -808 -63 -45 -151
-109 -195 -143 -45 -33 -133 -97 -196 -142 -63 -45 -194 -140 -290 -210 l-175
-128 -3 -505 c-2 -277 0 -919 4 -1426 l6 -923 1489 0 1488 0 7 35 c3 20 4 63
0 98 -8 89 -8 903 1 1222 l8 270 1400 0 1400 0 5 -810 5 -810 1498 0 c1300 1
1499 3 1507 15 6 9 10 585 10 1431 0 1117 -3 1418 -12 1431 -7 8 -60 49 -118
90 -58 41 -144 104 -191 139 -165 122 -440 323 -585 428 -49 36 -141 103 -204
151 -63 47 -146 108 -185 135 -38 27 -140 101 -226 164 -86 64 -209 154 -273
201 -65 47 -155 112 -200 145 -45 33 -120 87 -166 120 -46 33 -120 87 -165
120 -86 64 -186 136 -325 235 -93 66 -272 196 -560 406 -102 74 -228 164 -280
201 -118 83 -340 244 -474 344 -55 41 -123 90 -151 109 -27 19 -99 70 -160
115 -60 45 -115 84 -121 88 -7 4 -43 -16 -80 -44z m1267 -956 c-3 -120 -11
-119 -11 2 0 54 3 95 6 92 4 -4 6 -46 5 -94z m16 -330 c-2 -21 -4 -6 -4 32 0
39 2 55 4 38 2 -18 2 -50 0 -70z m-20 -115 c-3 -8 -6 -5 -6 6 -1 11 2 17 5 13
3 -3 4 -12 1 -19z m0 -175 c-2 -21 -4 -4 -4 37 0 41 2 58 4 38 2 -21 2 -55 0
-75z m-3190 10 c-3 -10 -5 -2 -5 17 0 19 2 27 5 18 2 -10 2 -26 0 -35z m10
-80 c-3 -10 -5 -4 -5 12 0 17 2 24 5 18 2 -7 2 -21 0 -30z m-20 -215 c-3 -7
-5 -2 -5 12 0 14 2 19 5 13 2 -7 2 -19 0 -25z m20 -230 c-2 -35 -3 -9 -3 57 0
66 1 94 3 63 2 -32 2 -86 0 -120z m-20 125 c-3 -10 -5 -4 -5 12 0 17 2 24 5
18 2 -7 2 -21 0 -30z m0 -690 c-1 -103 -2 -21 -2 182 0 204 1 288 2 188 2
-100 2 -266 0 -370z m2267 292 c109 -99 262 -236 341 -306 156 -136 382 -339
485 -434 36 -34 94 -85 130 -115 36 -30 139 -122 229 -205 91 -82 209 -188
262 -235 159 -139 519 -460 589 -526 36 -33 110 -100 165 -149 107 -95 130
-121 99 -111 -28 8 -208 42 -303 57 -65 10 -95 20 -128 44 -121 85 -396 278
-486 341 -198 136 -506 352 -563 395 -32 24 -131 93 -219 154 -88 61 -185 128
-215 150 -361 256 -638 445 -652 445 -7 0 -50 -26 -95 -57 -45 -32 -115 -80
-155 -108 -39 -27 -126 -88 -192 -134 -67 -47 -168 -117 -226 -156 -58 -39
-136 -93 -175 -120 -38 -27 -104 -72 -145 -100 -140 -96 -415 -287 -440 -306
-14 -10 -92 -65 -174 -121 -81 -57 -198 -138 -260 -181 -61 -42 -128 -89 -149
-103 -22 -14 -66 -45 -99 -70 -33 -24 -76 -48 -96 -54 -59 -16 -383 -71 -394
-68 -9 3 62 69 236 217 28 24 112 98 186 166 74 67 153 137 175 156 22 18 83
72 135 119 52 47 176 157 275 245 99 87 225 200 280 250 106 96 306 273 384
340 25 21 91 80 146 130 103 94 219 197 415 370 63 55 170 150 239 212 l125
111 36 -31 c20 -18 126 -113 234 -212z m-3447 -102 c-3 -10 -5 -4 -5 12 0 17
2 24 5 18 2 -7 2 -21 0 -30z m6341 -1243 c0 -1225 -7 -1576 -21 -1130 -9 301
-9 1955 0 2216 15 410 21 82 21 -1086z m-6331 -492 c-1 -310 -2 -59 -2 557 0
616 1 869 2 563 2 -306 2 -810 0 -1120z m-20 -65 c-1 -302 -2 -55 -2 547 0
602 1 849 2 548 2 -302 2 -794 0 -1095z m1210 1105 c-3 -7 -5 -2 -5 12 0 14 2
19 5 13 2 -7 2 -19 0 -25z m-10 -80 c-3 -7 -5 -2 -5 12 0 14 2 19 5 13 2 -7 2
-19 0 -25z m-1190 -1670 c-3 -7 -5 -2 -5 12 0 14 2 19 5 13 2 -7 2 -19 0 -25z"/>
<path d="M7870 8083 c0 -556 3 -703 13 -703 26 0 983 0 994 0 10 0 13 151 13
704 l0 703 -510 0 -510 -1 0 -703z"/>
<path d="M9190 8085 l0 -705 323 0 c178 0 406 -3 505 -7 l182 -6 0 711 0 712
-505 0 -505 0 0 -705z"/>
<path d="M4515 7215 c-38 -8 -236 -47 -440 -88 -203 -41 -387 -78 -407 -81
-24 -4 -38 -12 -38 -21 0 -13 681 -15 5394 -15 4763 0 5395 2 5406 15 10 12
10 16 -1 19 -8 3 -210 44 -449 93 l-435 88 -4480 2 c-3717 1 -4492 -1 -4550
-12z"/>
<path d="M7555 6507 c-93 -44 -172 -82 -174 -84 -2 -1 -1 -9 2 -18 6 -14 10
-14 46 1 62 24 103 16 124 -26 16 -33 17 -83 15 -735 l-3 -700 -22 -41 c-12
-23 -41 -58 -65 -77 -23 -20 -39 -39 -35 -43 4 -4 54 14 113 41 l105 48 37
-22 c234 -140 522 -112 699 68 212 215 201 638 -21 791 -75 51 -158 73 -259
67 -75 -4 -99 -10 -160 -40 -40 -20 -98 -59 -129 -87 l-58 -52 0 484 c0 487
-2 509 -34 507 -6 0 -87 -37 -181 -82z m604 -869 c89 -46 143 -150 162 -312
19 -164 -13 -350 -75 -431 -45 -58 -91 -80 -172 -80 -94 0 -171 38 -226 110
-66 88 -71 111 -76 383 l-4 242 24 20 c36 30 131 79 174 89 58 15 141 5 193
-21z"/>
<path d="M8820 6510 c-91 -44 -169 -81 -174 -83 -5 -2 -7 -11 -3 -20 6 -15 9
-15 41 -2 57 24 103 20 123 -12 17 -25 18 -77 21 -735 2 -480 -1 -721 -8 -748
-14 -52 -42 -76 -96 -85 -27 -4 -44 -11 -41 -18 5 -15 489 -15 494 0 2 6 -15
13 -38 17 -107 17 -109 24 -109 399 l0 305 35 26 c143 110 324 105 391 -9 33
-56 44 -148 44 -365 0 -292 -14 -339 -109 -355 -23 -4 -41 -12 -41 -18 0 -9
66 -12 245 -12 183 0 245 3 245 12 0 6 -19 15 -42 18 -24 4 -50 12 -59 18 -41
31 -44 50 -49 402 -5 366 -4 355 -62 437 -28 40 -97 77 -165 89 -120 21 -251
-26 -366 -132 l-67 -61 0 494 c0 497 -1 519 -34 517 -6 0 -85 -36 -176 -79z"/>
<path d="M17386 6579 c-69 -14 -164 -60 -215 -105 -120 -105 -188 -294 -207
-579 -4 -55 -13 -112 -20 -127 -15 -29 -63 -48 -121 -48 -26 0 -33 -4 -33 -19
0 -15 11 -20 61 -25 80 -9 105 -33 114 -108 12 -98 1 -660 -14 -689 -15 -31
-47 -47 -108 -56 -24 -3 -42 -10 -40 -16 5 -15 597 -16 597 -1 0 7 -29 14 -70
18 -39 4 -84 12 -101 18 -58 20 -59 30 -59 443 l0 375 42 0 c23 0 87 -7 141
-16 111 -19 117 -17 117 46 0 58 -5 60 -105 50 -50 -5 -114 -10 -144 -10 l-54
0 6 218 c6 241 20 327 68 432 50 108 114 160 196 160 56 0 97 -31 148 -109 36
-58 51 -72 81 -80 66 -18 126 9 144 64 21 64 -16 120 -100 151 -54 20 -251 28
-324 13z"/>
<path d="M3350 6326 c0 -8 15 -15 39 -19 55 -7 104 -33 162 -85 l50 -45 -4
-586 c-3 -652 -2 -634 -72 -707 -32 -33 -52 -44 -97 -54 -32 -7 -58 -18 -58
-24 0 -8 76 -11 250 -11 183 0 250 3 250 12 0 6 -18 14 -40 18 -61 10 -102 43
-135 110 l-30 60 -3 548 c-2 326 1 548 6 545 5 -1 267 -302 581 -668 315 -366
578 -666 586 -668 13 -3 15 83 15 645 0 406 4 672 11 713 18 114 64 172 155
195 102 26 60 33 -190 33 -203 0 -246 -3 -246 -14 0 -8 10 -14 25 -14 65 0
142 -63 166 -137 12 -37 25 -726 17 -928 l-3 -80 -440 520 c-243 286 -465 550
-494 588 l-53 67 -224 0 c-183 0 -224 -3 -224 -14z"/>
<path d="M14710 6325 c0 -8 22 -14 63 -17 35 -3 73 -11 84 -19 48 -29 48 -26
51 -679 2 -338 0 -639 -3 -669 -10 -79 -41 -107 -128 -116 -39 -4 -67 -12 -67
-19 0 -8 87 -11 315 -11 228 0 315 3 315 11 0 7 -27 15 -65 19 -47 5 -73 13
-93 30 l-27 23 -3 666 c-3 743 -4 724 62 751 20 8 56 15 81 15 32 0 45 4 45
14 0 12 -52 14 -315 14 -246 0 -315 -3 -315 -13z"/>
<path d="M13560 5894 c-28 -85 -127 -155 -238 -170 -42 -5 -52 -10 -52 -25 0
-13 7 -19 24 -19 43 0 84 -21 95 -48 6 -17 11 -158 13 -372 l3 -345 25 -45
c19 -34 39 -51 83 -74 51 -26 69 -30 140 -30 101 1 173 25 260 87 119 85 126
118 13 61 -56 -28 -80 -34 -130 -34 -87 1 -141 27 -166 82 -18 40 -20 68 -20
371 l0 327 56 0 c30 0 103 -7 161 -16 121 -19 125 -18 121 56 l-3 45 -50 -3
c-27 -1 -103 -6 -167 -10 l-117 -7 -3 100 c-3 83 -6 100 -20 103 -11 2 -20 -8
-28 -34z"/>
<path d="M5630 5764 c-262 -56 -449 -289 -450 -560 0 -187 70 -327 199 -397
144 -79 304 -50 470 84 l61 49 0 -28 c0 -40 27 -127 44 -142 12 -9 48 5 185
71 94 45 171 86 171 90 0 17 -20 18 -60 4 -63 -22 -95 -19 -119 11 -20 26 -21
37 -21 418 0 215 -4 397 -9 404 -6 11 -19 6 -55 -22 l-47 -36 -47 24 c-92 46
-201 56 -322 30z m145 -53 c22 -10 53 -31 69 -47 54 -54 56 -68 56 -388 l0
-295 -47 -32 c-142 -98 -290 -90 -367 18 -45 64 -65 122 -76 221 -20 181 21
360 107 462 59 71 176 99 258 61z"/>
<path d="M10414 5765 c-188 -41 -359 -192 -418 -369 -81 -242 -3 -508 175
-594 155 -75 331 -37 481 106 l37 35 6 -39 c13 -76 25 -111 43 -127 17 -16 29
-12 190 65 95 46 170 87 168 93 -4 12 -17 11 -77 -5 -25 -7 -58 -10 -73 -6
-53 13 -56 36 -56 460 0 265 -3 387 -11 392 -6 3 -23 -5 -37 -19 -48 -43 -59
-46 -110 -20 -88 43 -203 53 -318 28z m130 -46 c50 -14 118 -82 134 -135 8
-28 12 -129 12 -321 l0 -279 -28 -21 c-104 -77 -232 -104 -309 -65 -101 52
-152 163 -160 347 -14 324 140 533 351 474z"/>
<path d="M12520 5764 c-262 -56 -449 -289 -450 -560 0 -187 70 -327 199 -397
144 -79 304 -50 470 84 l61 49 0 -28 c0 -40 27 -127 44 -142 12 -9 48 5 185
71 94 45 171 86 171 90 0 17 -20 18 -60 4 -63 -22 -95 -19 -119 11 -20 26 -21
37 -21 425 0 241 -4 400 -10 404 -5 3 -30 -10 -55 -30 l-46 -35 -47 24 c-92
46 -201 56 -322 30z m145 -53 c22 -10 53 -31 69 -47 54 -54 56 -68 56 -388 l0
-295 -26 -20 c-95 -75 -227 -101 -309 -61 -115 56 -179 246 -155 457 21 189
80 301 185 349 60 29 125 30 180 5z"/>
<path d="M16160 5765 c-75 -21 -134 -58 -206 -127 l-62 -59 -11 62 c-12 73
-39 123 -68 127 -30 4 -354 -160 -345 -175 5 -9 23 -6 69 10 71 25 109 18 130
-23 16 -32 18 -654 3 -696 -14 -36 -36 -51 -87 -59 -24 -3 -43 -12 -43 -18 0
-9 62 -12 245 -12 177 0 245 3 245 11 0 7 -17 15 -37 19 -101 19 -103 26 -103
399 l0 305 33 25 c103 79 242 102 328 55 31 -17 50 -38 68 -74 26 -49 26 -52
29 -325 2 -183 0 -288 -8 -313 -12 -42 -38 -62 -92 -72 -21 -4 -38 -12 -38
-19 0 -8 68 -11 245 -11 183 0 245 3 245 12 0 6 -19 15 -42 18 -24 4 -50 12
-59 18 -41 30 -43 51 -49 402 l-5 340 -27 50 c-31 59 -57 85 -117 115 -58 29
-166 35 -241 15z"/>
<path d="M18950 5773 c-114 -19 -230 -80 -315 -167 -117 -118 -165 -237 -165
-407 1 -151 33 -244 113 -327 142 -147 359 -142 547 13 30 25 58 45 62 45 5 0
8 -12 8 -27 0 -41 18 -98 38 -123 l17 -21 173 82 c95 45 171 87 169 93 -5 13
-17 12 -78 -4 -55 -16 -94 -8 -111 23 -10 17 -14 121 -16 425 -2 221 -5 402
-8 402 -2 0 -25 -15 -51 -34 l-47 -34 -38 19 c-80 41 -203 58 -298 42z m93
-54 c49 -13 105 -63 128 -114 17 -36 19 -71 19 -333 l0 -292 -52 -33 c-152
-96 -283 -88 -365 21 -54 71 -78 166 -78 307 0 66 7 145 14 175 50 207 181
312 334 269z"/>
<path d="M11275 5689 c-140 -69 -175 -92 -155 -101 3 -2 33 6 67 16 79 24 110
17 129 -30 12 -29 14 -92 12 -365 l-3 -331 -27 -23 c-15 -13 -45 -26 -67 -30
-23 -4 -41 -12 -41 -18 0 -9 76 -12 290 -12 210 0 290 3 290 11 0 7 -28 15
-67 19 -38 4 -82 14 -100 22 -60 28 -63 47 -63 386 l0 305 39 35 c53 48 98 70
127 63 12 -3 43 -24 68 -45 25 -22 55 -43 67 -46 35 -11 87 4 109 32 24 31 27
99 4 131 -23 34 -87 62 -139 62 -63 0 -116 -30 -201 -111 -39 -38 -74 -66 -77
-62 -4 3 -7 20 -7 37 0 17 -11 55 -25 84 -19 41 -29 52 -47 51 -13 0 -95 -36
-183 -80z"/>
<path d="M17673 5690 c-90 -43 -163 -83 -163 -88 0 -19 13 -19 65 -1 91 32
128 22 145 -39 6 -22 10 -161 10 -340 0 -372 0 -371 -99 -397 -25 -6 -46 -15
-46 -20 0 -13 578 -12 582 2 2 6 -22 13 -64 18 -90 9 -128 26 -150 67 -16 29
-18 66 -21 334 l-4 301 56 50 c84 77 130 78 200 4 69 -73 186 -36 186 59 0
107 -134 164 -249 106 -26 -14 -78 -54 -116 -91 -37 -36 -69 -64 -70 -63 0 2
-6 30 -13 63 -13 66 -39 109 -68 112 -10 1 -92 -34 -181 -77z"/>
<path d="M6250 5736 c0 -6 20 -17 45 -24 36 -10 52 -21 78 -57 17 -25 122
-231 233 -458 180 -369 203 -412 224 -412 22 0 39 34 189 385 92 212 178 406
193 431 37 64 90 108 138 115 23 4 40 12 40 20 0 10 -45 12 -222 11 -228 -2
-271 -11 -162 -33 44 -8 64 -19 86 -43 47 -52 40 -83 -68 -345 -53 -127 -99
-237 -104 -245 -9 -16 -300 549 -300 583 0 29 32 47 96 53 35 4 54 10 54 19 0
11 -51 13 -260 13 -194 -1 -260 -4 -260 -13z"/>
<path d="M8420 4171 c-133 -28 -191 -117 -210 -318 -8 -93 -20 -112 -69 -114
-22 -1 -19 -3 13 -13 22 -7 43 -21 47 -32 9 -24 10 -330 0 -364 -5 -18 -18
-28 -46 -37 -35 -10 -21 -11 110 -11 122 0 141 2 100 10 -27 5 -56 16 -62 25
-9 12 -13 71 -13 210 l0 193 58 -7 c93 -11 97 -10 100 16 l4 24 -81 -7 -81 -6
0 93 c0 173 34 277 103 310 49 25 80 16 125 -33 54 -61 115 -53 98 13 -3 13
-16 28 -29 34 -33 15 -125 23 -167 14z"/>
<path d="M19620 4130 c-63 -32 -69 -38 -40 -33 64 9 64 15 61 -400 -1 -204 -5
-375 -8 -380 -3 -5 -19 -15 -37 -23 -28 -12 -21 -13 89 -14 l120 0 -35 18 -35
17 -3 428 c-3 492 9 450 -112 387z"/>
<path d="M3330 4028 c39 -20 61 -47 167 -203 l122 -180 1 -156 c0 -175 -3
-183 -65 -198 -30 -7 -2 -9 115 -9 116 0 145 2 116 9 -67 16 -66 14 -66 203
l0 171 85 135 c90 142 160 219 216 237 28 9 12 11 -96 11 -113 1 -125 -1 -95
-11 29 -10 36 -18 38 -44 4 -38 -7 -60 -97 -200 l-69 -106 -101 151 c-55 83
-101 161 -101 171 0 14 10 23 33 30 24 7 -3 9 -108 10 l-139 1 44 -22z"/>
<path d="M7452 4008 c-17 -17 -15 -64 4 -82 18 -19 65 -21 82 -4 7 7 12 26 12
43 0 17 -5 36 -12 43 -7 7 -26 12 -43 12 -17 0 -36 -5 -43 -12z"/>
<path d="M10136 4004 c-36 -35 -9 -94 43 -94 34 0 54 21 54 55 0 14 -6 32 -13
40 -16 20 -64 19 -84 -1z"/>
<path d="M12007 4002 c-21 -23 -21 -41 -1 -70 30 -43 104 -18 104 36 0 48 -70
71 -103 34z"/>
<path d="M16580 4001 c-24 -46 0 -91 49 -91 35 0 51 17 51 55 0 40 -16 55 -57
55 -22 0 -36 -6 -43 -19z"/>
<path d="M7070 3804 c-19 -29 -37 -43 -72 -55 l-48 -15 33 -15 32 -14 5 -193
5 -194 28 -24 c43 -36 125 -34 195 6 59 34 72 58 15 28 -51 -26 -110 -19 -140
17 -22 25 -23 34 -23 201 l0 175 63 -7 c104 -13 112 -12 115 15 l4 24 -91 -7
-90 -7 -3 52 -3 52 -25 -39z"/>
<path d="M9750 3804 c-19 -29 -37 -43 -72 -55 l-48 -15 33 -15 32 -14 5 -192
c5 -182 6 -194 27 -215 18 -17 37 -23 85 -25 56 -4 69 0 116 27 59 35 72 58
15 28 -47 -24 -107 -19 -137 11 -20 20 -21 34 -24 202 l-3 180 63 -7 c105 -13
113 -12 116 15 l4 24 -91 -7 -90 -7 -3 52 -3 52 -25 -39z"/>
<path d="M4116 3750 c-97 -38 -155 -121 -156 -221 0 -157 95 -259 243 -259
154 0 258 98 259 244 1 191 -167 306 -346 236z m127 -14 c65 -28 111 -106 122
-212 14 -119 -24 -215 -93 -233 -81 -23 -162 36 -199 143 -23 68 -23 199 0
243 36 68 99 90 170 59z"/>
<path d="M4595 3729 c-50 -24 -68 -37 -49 -33 52 9 58 -9 64 -192 l5 -164 30
-30 c59 -58 159 -49 240 22 l45 39 6 -39 c11 -67 15 -69 87 -38 36 15 73 34
84 42 17 14 16 15 -7 8 -14 -4 -30 -8 -35 -11 -6 -2 -19 3 -30 11 -18 13 -20
30 -25 220 l-5 206 -80 -40 c-53 -27 -69 -38 -48 -34 47 8 53 -13 53 -173 l0
-139 -42 -27 c-58 -38 -134 -38 -169 -1 -23 25 -24 30 -27 212 -2 103 -6 190
-10 193 -4 4 -43 -10 -87 -32z"/>
<path d="M5222 3731 c-45 -22 -82 -42 -82 -44 0 -2 18 1 40 6 69 19 74 5 78
-181 4 -180 -2 -207 -50 -221 -25 -7 4 -9 112 -9 109 0 134 2 101 9 -79 15
-81 20 -81 199 l0 158 32 31 c37 36 58 39 97 10 41 -30 75 -22 79 19 3 29 -1
34 -32 47 -45 19 -77 8 -132 -46 l-41 -41 -7 34 c-13 71 -21 73 -114 29z"/>
<path d="M6049 3760 c-69 -20 -99 -61 -99 -134 0 -58 23 -85 115 -136 80 -44
115 -83 115 -132 0 -91 -147 -88 -198 3 -38 68 -41 68 -42 7 0 -51 3 -59 27
-75 40 -27 149 -29 193 -5 51 28 80 75 80 132 0 62 -21 87 -119 144 -89 51
-111 76 -111 122 0 54 57 81 113 53 32 -16 77 -61 77 -75 0 -7 5 -16 10 -19 6
-4 10 15 10 49 l0 55 -37 10 c-44 12 -96 13 -134 1z"/>
<path d="M6550 3761 c-78 -24 -141 -79 -176 -156 -32 -68 -33 -179 -3 -242 27
-56 87 -93 152 -93 58 0 91 13 144 56 l42 35 12 -46 c6 -25 15 -45 19 -45 10
0 160 70 160 74 0 2 -20 1 -45 -2 -41 -4 -45 -3 -55 22 -5 15 -10 112 -10 218
0 189 0 191 -20 173 -18 -16 -22 -16 -60 -1 -42 17 -117 20 -160 7z m100 -26
c55 -28 60 -46 60 -206 l0 -147 -30 -26 c-45 -37 -99 -51 -144 -36 -62 20 -96
90 -96 200 0 169 100 272 210 215z"/>
<path d="M7445 3724 l-90 -42 50 1 c47 2 50 1 56 -28 11 -48 10 -277 -1 -316
-8 -28 -17 -38 -43 -47 -26 -8 -10 -10 88 -11 l120 -1 -35 18 -35 17 -3 220
c-1 121 -6 222 -10 226 -4 3 -47 -13 -97 -37z"/>
<path d="M7813 3751 c-57 -27 -85 -73 -80 -129 6 -54 37 -89 120 -133 83 -44
107 -72 107 -124 0 -54 -22 -75 -78 -75 -34 0 -49 7 -81 35 -21 19 -44 49 -51
65 -16 40 -34 39 -26 -1 3 -17 6 -44 6 -59 0 -23 7 -31 40 -44 93 -37 198 -8
239 65 46 81 13 150 -100 211 -79 41 -113 79 -113 124 0 47 26 67 76 61 47 -6
96 -41 114 -81 13 -31 13 -31 14 26 0 31 -5 60 -11 64 -6 3 -39 8 -73 11 -46
3 -71 -1 -103 -16z"/>
<path d="M8694 3754 c-98 -35 -173 -138 -182 -250 -17 -214 167 -307 334 -169
l31 26 7 -41 c3 -22 13 -43 20 -46 8 -3 49 13 92 35 75 39 77 40 37 35 -73
-11 -73 -10 -73 224 l0 205 -20 -18 c-20 -18 -23 -18 -68 -2 -56 20 -122 21
-178 1z m126 -19 c51 -26 60 -58 60 -214 0 -138 0 -140 -26 -160 -40 -31 -109
-54 -141 -47 -136 35 -150 337 -19 417 37 23 87 24 126 4z"/>
<path d="M9322 3755 c-184 -51 -259 -243 -155 -397 68 -100 240 -118 354 -37
38 27 32 34 -11 13 -45 -23 -107 -28 -160 -14 -109 29 -167 176 -126 315 18
59 49 92 97 105 48 13 83 0 104 -39 8 -17 27 -38 40 -47 23 -15 27 -15 50 0
88 58 -63 137 -193 101z"/>
<path d="M10560 3755 c-57 -18 -115 -66 -142 -118 -35 -66 -32 -166 7 -243 25
-48 41 -65 85 -91 48 -29 63 -33 125 -33 78 0 141 23 188 68 100 95 100 262
-1 363 -68 68 -158 86 -262 54z m119 -19 c76 -40 121 -136 121 -260 -1 -121
-47 -189 -128 -189 -80 0 -149 70 -173 177 -17 78 -9 198 17 233 39 52 106 68
163 39z"/>
<path d="M11038 3729 c-43 -21 -78 -41 -78 -43 0 -2 18 1 39 7 70 19 72 12 69
-197 l-3 -181 -35 -17 -35 -18 120 1 c98 1 114 3 88 11 -44 14 -53 50 -53 216
0 121 2 134 21 153 51 51 149 65 194 27 35 -30 45 -80 44 -218 -1 -145 -5
-160 -49 -176 -31 -11 -22 -12 90 -12 84 0 116 3 97 8 -56 17 -57 19 -57 199
0 143 -3 172 -20 209 -43 94 -180 96 -279 4 -18 -18 -35 -32 -37 -32 -2 0 -4
13 -4 29 0 16 -8 38 -17 49 l-18 21 -77 -40z"/>
<path d="M12375 3755 c-61 -22 -85 -55 -85 -119 0 -69 19 -93 115 -146 48 -26
83 -53 95 -73 75 -122 -85 -181 -174 -64 -15 19 -26 39 -26 45 0 6 -4 14 -10
17 -6 4 -10 -16 -10 -53 l0 -60 40 -16 c127 -51 260 16 260 131 0 61 -20 86
-116 144 -93 56 -114 79 -114 125 0 76 91 85 163 16 15 -14 27 -31 27 -38 0
-7 5 -16 10 -19 6 -4 10 15 10 49 l0 55 -37 10 c-51 15 -100 13 -148 -4z"/>
<path d="M13134 3750 c-60 -24 -110 -70 -135 -125 -27 -59 -25 -157 5 -220 44
-94 111 -135 221 -135 109 0 187 46 231 136 23 46 26 64 22 127 -3 61 -9 83
-33 123 -63 101 -193 141 -311 94z m160 -33 c85 -66 120 -259 66 -367 -40 -79
-140 -87 -207 -18 -55 57 -77 120 -78 223 0 102 19 155 64 181 39 22 113 13
155 -19z"/>
<path d="M13615 3730 c-51 -25 -69 -38 -49 -34 19 3 35 0 41 -8 6 -7 13 -81
15 -168 4 -174 15 -207 74 -235 64 -30 155 -7 222 58 29 28 32 29 32 10 0 -27
20 -83 30 -83 14 0 163 71 158 75 -3 3 -20 0 -38 -7 -30 -10 -35 -9 -52 12
-16 20 -18 43 -18 216 0 106 -3 195 -7 197 -5 3 -42 -13 -83 -34 -41 -21 -63
-36 -49 -33 51 11 59 -12 59 -165 0 -130 -1 -139 -22 -159 -31 -28 -71 -42
-123 -42 -36 0 -48 5 -69 31 -14 17 -27 34 -27 37 -1 4 -4 89 -8 189 l-6 182
-80 -39z"/>
<path d="M14238 3729 c-43 -21 -78 -41 -78 -43 0 -2 18 2 40 7 67 18 74 3 78
-166 5 -177 -5 -220 -50 -235 -26 -8 -3 -10 112 -10 146 0 156 1 88 13 -66 11
-68 17 -68 200 l0 163 31 26 c37 31 62 33 96 6 43 -34 83 -21 83 28 0 17 -9
27 -35 38 -44 18 -85 3 -138 -50 l-37 -36 -5 27 c-9 41 -23 73 -32 73 -5 -1
-43 -19 -85 -41z"/>
<path d="M14992 3731 c-45 -22 -82 -42 -82 -44 0 -2 18 1 40 6 67 18 74 3 78
-166 5 -177 -5 -220 -50 -235 -27 -8 -11 -10 87 -11 l120 -1 -35 18 -35 17 -3
164 c-3 182 0 190 65 217 84 36 150 3 164 -82 9 -59 10 -239 0 -274 -4 -15
-21 -32 -41 -42 l-35 -18 120 0 120 0 -35 18 -35 17 -3 167 -2 167 35 27 c78
59 172 38 195 -44 11 -42 12 -277 1 -306 -4 -11 -23 -25 -42 -32 -30 -11 -22
-13 86 -13 l120 -1 -35 18 -35 17 -5 180 c-6 204 -15 236 -75 261 -66 27 -136
10 -203 -52 l-46 -41 -18 39 c-39 87 -163 90 -253 7 -44 -40 -55 -38 -55 10 0
9 -6 25 -13 34 -11 16 -18 14 -95 -22z"/>
<path d="M16100 3761 c-78 -24 -155 -97 -185 -173 -26 -69 -19 -192 15 -241
66 -96 194 -104 292 -18 37 32 48 31 48 -4 0 -12 6 -29 13 -39 12 -16 18 -15
90 18 42 19 77 37 77 39 0 3 -20 2 -45 -1 -41 -4 -45 -3 -55 22 -5 15 -10 112
-10 218 0 189 0 191 -20 173 -18 -16 -22 -16 -60 -1 -42 17 -117 20 -160 7z
m132 -50 l28 -31 0 -153 0 -153 -42 -27 c-119 -77 -216 -16 -226 142 -6 88 13
164 51 208 39 45 61 54 117 49 34 -3 51 -11 72 -35z"/>
<path d="M16575 3724 l-90 -42 49 1 c62 2 64 -2 65 -178 1 -162 -8 -198 -52
-213 -26 -8 -10 -10 88 -11 l120 -1 -35 18 -35 17 -3 220 c-1 121 -6 222 -10
226 -4 3 -47 -13 -97 -37z"/>
<path d="M16888 3729 c-43 -21 -78 -41 -78 -43 0 -2 18 1 39 7 70 19 72 12 69
-197 l-3 -181 -35 -17 -35 -18 120 1 c97 1 114 3 88 11 -17 6 -35 18 -39 27
-4 9 -9 84 -12 167 -4 149 -4 152 19 174 57 54 159 68 197 27 34 -36 42 -80
41 -212 -1 -150 -5 -165 -49 -181 -31 -11 -22 -12 90 -12 84 0 116 3 97 8 -56
17 -57 19 -57 199 0 143 -3 172 -20 209 -43 95 -179 96 -278 3 -18 -17 -35
-31 -38 -31 -2 0 -4 13 -4 29 0 16 -8 38 -17 49 l-18 21 -77 -40z"/>
<path d="M17960 3753 c-61 -22 -142 -104 -163 -167 -21 -62 -22 -155 -2 -204
31 -73 86 -112 160 -112 56 0 100 18 147 59 20 17 38 31 42 31 10 0 7 -209 -4
-275 -12 -72 -35 -106 -83 -122 -55 -19 -102 -1 -140 53 -17 24 -39 46 -49 50
-47 15 -80 -31 -53 -73 25 -37 73 -56 150 -57 122 -2 210 52 245 151 17 49 27
683 11 683 -6 0 -11 -4 -11 -9 0 -18 -37 -21 -73 -6 -46 19 -119 18 -177 -2z
m148 -37 l37 -34 0 -153 0 -153 -49 -31 c-118 -73 -210 -14 -223 144 -9 111
37 225 101 251 48 20 95 11 134 -24z"/>
<path d="M18516 3750 c-97 -38 -155 -121 -156 -221 0 -158 96 -259 246 -259
153 1 256 99 256 245 1 190 -168 304 -346 235z m127 -14 c97 -41 153 -212 114
-347 -18 -62 -39 -85 -87 -99 -49 -14 -90 -1 -136 45 -54 55 -78 125 -78 230
0 149 76 218 187 171z"/>
<path d="M19136 3750 c-58 -23 -119 -78 -148 -135 -26 -49 -36 -167 -18 -219
25 -78 88 -126 165 -126 56 0 100 18 147 59 44 38 48 38 48 3 0 -16 6 -37 14
-47 13 -18 16 -17 90 18 42 20 76 38 76 40 0 2 -21 3 -47 3 -45 -1 -48 1 -54
29 -4 17 -7 113 -8 214 -1 182 -1 184 -21 166 -18 -16 -22 -16 -60 -1 -53 21
-123 20 -184 -4z m155 -36 l29 -28 0 -156 0 -156 -42 -27 c-84 -54 -154 -42
-199 36 -21 36 -24 55 -24 137 0 78 4 102 22 135 22 41 56 78 83 88 35 14 101
-1 131 -29z"/>
<path d="M10128 3726 c-85 -40 -87 -43 -36 -42 54 1 56 -7 56 -189 0 -171 -3
-185 -48 -201 -32 -11 -24 -13 85 -13 l120 -1 -35 18 -35 17 -3 223 c-3 256 5
241 -104 188z"/>
<path d="M11995 3721 c-70 -34 -75 -39 -41 -34 62 9 66 -4 66 -192 0 -176 -4
-189 -55 -204 -21 -7 6 -9 95 -9 89 0 116 2 95 9 -53 15 -55 25 -55 256 0 168
-3 213 -13 213 -7 0 -49 -18 -92 -39z"/>
</g>
</svg>
